<svg width="142" height="41" viewBox="0 0 142 41" fill="none" xmlns="http://www.w3.org/2000/svg">
<g clip-path="url(#clip0_166_35)">
<rect width="142" height="41" fill="white"/>
<path d="M32.84 22.728V23.472H42.2V22.728C42.2 22.296 42.16 21.896 42.08 21.528C42.016 21.16 41.928 20.816 41.816 20.496L40.16 16.584C39.984 16.168 39.8 15.824 39.608 15.552C39.416 15.264 39.096 15.12 38.648 15.12H36.296C35.816 15.12 35.48 15.264 35.288 15.552C35.096 15.824 34.92 16.16 34.76 16.56L33.224 20.496C33.112 20.816 33.016 21.16 32.936 21.528C32.872 21.896 32.84 22.296 32.84 22.728ZM36.68 17.76C36.744 17.616 36.808 17.512 36.872 17.448C36.952 17.384 37.04 17.352 37.136 17.352H37.736C37.832 17.352 37.912 17.384 37.976 17.448C38.056 17.512 38.128 17.616 38.192 17.76L39.32 21.408H35.552L36.68 17.76ZM42.2 27.84V23.712H32.84V27.84H32.6V22.728C32.6 22.28 32.632 21.872 32.696 21.504C32.776 21.12 32.88 20.752 33.008 20.4L34.544 16.464C34.72 16.016 34.92 15.64 35.144 15.336C35.368 15.032 35.752 14.88 36.296 14.88H38.648C39.176 14.88 39.544 15.032 39.752 15.336C39.976 15.64 40.184 16.024 40.376 16.488L42.032 20.4C42.16 20.752 42.256 21.12 42.32 21.504C42.4 21.872 42.44 22.28 42.44 22.728V27.84H42.2ZM35.312 29.136V25.776H39.56V29.136C39.56 29.44 39.632 29.664 39.776 29.808C39.936 29.936 40.176 30 40.496 30H44.12C44.424 30 44.64 29.936 44.768 29.808C44.912 29.664 44.984 29.44 44.984 29.136V22.8C44.984 22.32 44.904 21.768 44.744 21.144C44.6 20.52 44.368 19.792 44.048 18.96L41.96 13.512C41.864 13.24 41.712 13.04 41.504 12.912C41.312 12.784 41.064 12.72 40.76 12.72H34.304C33.984 12.72 33.72 12.784 33.512 12.912C33.32 13.04 33.176 13.24 33.08 13.512L30.992 18.96C30.672 19.792 30.432 20.52 30.272 21.144C30.128 21.768 30.056 22.32 30.056 22.8V29.136C30.056 29.44 30.12 29.664 30.248 29.808C30.392 29.936 30.616 30 30.92 30H34.448C34.752 30 34.968 29.936 35.096 29.808C35.24 29.664 35.312 29.44 35.312 29.136ZM32.096 32.616C32.032 32.68 31.928 32.736 31.784 32.784C31.656 32.832 31.512 32.856 31.352 32.856H27.824C27.44 32.856 27.16 32.768 26.984 32.592C26.808 32.416 26.72 32.136 26.72 31.752V25.416C26.72 24.92 26.792 24.36 26.936 23.736C27.096 23.096 27.344 22.344 27.68 21.48L29.744 16.056C29.792 15.912 29.848 15.792 29.912 15.696C29.992 15.584 30.072 15.488 30.152 15.408L30.176 15.384L33.248 12.816C33.376 12.704 33.528 12.624 33.704 12.576C33.88 12.512 34.08 12.48 34.304 12.48H40.76C41.128 12.48 41.424 12.56 41.648 12.72C41.888 12.864 42.064 13.096 42.176 13.416L44.264 18.864C44.6 19.728 44.84 20.48 44.984 21.12C45.144 21.744 45.224 22.304 45.224 22.8V29.136C45.224 29.344 45.192 29.52 45.128 29.664C45.08 29.808 45 29.928 44.888 30.024L41.768 32.616C41.704 32.68 41.6 32.736 41.456 32.784C41.328 32.832 41.184 32.856 41.024 32.856H37.4C37 32.856 36.704 32.76 36.512 32.568C36.32 32.392 36.224 32.12 36.224 31.752V28.632H35.552V29.136C35.552 29.344 35.52 29.52 35.456 29.664C35.408 29.808 35.328 29.928 35.216 30.024L32.096 32.616ZM51.8259 32.856H48.1059C47.7219 32.856 47.4419 32.768 47.2659 32.592C47.0899 32.416 47.0019 32.136 47.0019 31.752V16.2C47.0019 15.992 47.0259 15.816 47.0739 15.672C47.1379 15.528 47.2259 15.408 47.3379 15.312L50.4339 12.696C50.5139 12.632 50.6179 12.584 50.7459 12.552C50.8899 12.504 51.0419 12.48 51.2019 12.48H58.5459C59.6819 12.48 60.6339 12.6 61.4019 12.84C62.1699 13.08 62.7779 13.416 63.2259 13.848C63.6739 14.28 63.9859 14.8 64.1619 15.408C64.3539 16.016 64.4499 16.68 64.4499 17.4V20.472C64.4499 21.24 64.3379 21.944 64.1139 22.584C63.9059 23.208 63.5379 23.744 63.0099 24.192L59.8899 26.784C59.4899 27.12 58.9699 27.4 58.3299 27.624C57.7059 27.832 56.9379 27.952 56.0259 27.984V29.136C56.0259 29.344 55.9939 29.52 55.9299 29.664C55.8819 29.808 55.8019 29.928 55.6899 30.024L52.5699 32.616C52.5059 32.68 52.4019 32.736 52.2579 32.784C52.1299 32.832 51.9859 32.856 51.8259 32.856ZM54.9219 30C55.2259 30 55.4419 29.936 55.5699 29.808C55.7139 29.664 55.7859 29.44 55.7859 29.136V25.152H58.5459C60.7219 25.152 62.2099 24.72 63.0099 23.856C63.8099 22.992 64.2099 21.864 64.2099 20.472V17.4C64.2099 16.008 63.8099 14.88 63.0099 14.016C62.2099 13.152 60.7219 12.72 58.5459 12.72H51.2019C50.8979 12.72 50.6739 12.792 50.5299 12.936C50.4019 13.064 50.3379 13.28 50.3379 13.584V29.136C50.3379 29.44 50.4019 29.664 50.5299 29.808C50.6739 29.936 50.8979 30 51.2019 30H54.9219ZM58.2099 23.112H53.2659V27.84H53.0259V14.88H58.2099C58.9619 14.88 59.5699 14.968 60.0339 15.144C60.5139 15.304 60.8819 15.528 61.1379 15.816C61.3939 16.104 61.5699 16.448 61.6659 16.848C61.7619 17.248 61.8099 17.68 61.8099 18.144V19.92C61.8099 20.384 61.7619 20.816 61.6659 21.216C61.5699 21.6 61.3939 21.936 61.1379 22.224C60.8819 22.496 60.5139 22.712 60.0339 22.872C59.5699 23.032 58.9619 23.112 58.2099 23.112ZM53.2659 22.872H58.2099C58.9139 22.872 59.4819 22.8 59.9139 22.656C60.3619 22.512 60.7059 22.312 60.9459 22.056C61.1859 21.784 61.3459 21.472 61.4259 21.12C61.5219 20.752 61.5699 20.352 61.5699 19.92V18.144C61.5699 17.712 61.5219 17.312 61.4259 16.944C61.3459 16.576 61.1859 16.256 60.9459 15.984C60.7059 15.712 60.3619 15.504 59.9139 15.36C59.4819 15.2 58.9139 15.12 58.2099 15.12H53.2659V22.872ZM55.7379 17.208H57.8979C58.3619 17.208 58.6659 17.328 58.8099 17.568C58.9539 17.808 59.0259 18.08 59.0259 18.384V19.656C59.0259 19.96 58.9539 20.232 58.8099 20.472C58.6659 20.712 58.3619 20.832 57.8979 20.832H55.7379V17.208ZM71.7033 27.84V14.88H71.9433V21.24H81.1593V14.88H81.3993V27.84H81.1593V21.48H71.9433V27.84H71.7033ZM73.6953 30C73.9993 30 74.2153 29.936 74.3433 29.808C74.4873 29.664 74.5593 29.44 74.5593 29.136V23.808H78.5673V29.136C78.5673 29.44 78.6313 29.664 78.7593 29.808C78.9033 29.936 79.1273 30 79.4313 30H83.1513C83.4553 30 83.6713 29.936 83.7993 29.808C83.9433 29.664 84.0153 29.44 84.0153 29.136V13.584C84.0153 13.28 83.9433 13.064 83.7993 12.936C83.6713 12.792 83.4553 12.72 83.1513 12.72H79.4313C79.1273 12.72 78.9033 12.792 78.7593 12.936C78.6313 13.064 78.5673 13.28 78.5673 13.584V18.792H74.5593V13.584C74.5593 13.28 74.4873 13.064 74.3433 12.936C74.2153 12.792 73.9993 12.72 73.6953 12.72H69.9753C69.6713 12.72 69.4473 12.792 69.3033 12.936C69.1753 13.064 69.1113 13.28 69.1113 13.584V29.136C69.1113 29.44 69.1753 29.664 69.3033 29.808C69.4473 29.936 69.6713 30 69.9753 30H73.6953ZM74.4633 30.024L71.3433 32.616C71.2793 32.68 71.1753 32.736 71.0313 32.784C70.9033 32.832 70.7593 32.856 70.5993 32.856H66.8793C66.4953 32.856 66.2153 32.768 66.0393 32.592C65.8633 32.416 65.7753 32.136 65.7753 31.752V16.2C65.7753 15.992 65.7993 15.816 65.8473 15.672C65.9113 15.528 65.9993 15.408 66.1113 15.312L69.2073 12.696C69.2873 12.632 69.3913 12.584 69.5193 12.552C69.6633 12.504 69.8153 12.48 69.9753 12.48H73.6953C74.0793 12.48 74.3593 12.568 74.5353 12.744C74.7113 12.92 74.7993 13.2 74.7993 13.584V18.552H75.2313V16.2C75.2313 15.992 75.2553 15.816 75.3033 15.672C75.3673 15.528 75.4553 15.408 75.5673 15.312L78.6633 12.696C78.7433 12.632 78.8473 12.584 78.9753 12.552C79.1193 12.504 79.2713 12.48 79.4313 12.48H83.1513C83.5353 12.48 83.8153 12.568 83.9913 12.744C84.1673 12.92 84.2553 13.2 84.2553 13.584V29.136C84.2553 29.344 84.2233 29.52 84.1593 29.664C84.1113 29.808 84.0313 29.928 83.9193 30.024L80.7993 32.616C80.7353 32.68 80.6313 32.736 80.4873 32.784C80.3593 32.832 80.2153 32.856 80.0553 32.856H76.3353C75.9513 32.856 75.6713 32.768 75.4953 32.592C75.3193 32.416 75.2313 32.136 75.2313 31.752V26.664H74.7993V29.136C74.7993 29.344 74.7673 29.52 74.7033 29.664C74.6553 29.808 74.5753 29.928 74.4633 30.024ZM98.6403 32.856H87.5043C87.1203 32.856 86.8403 32.768 86.6643 32.592C86.4883 32.416 86.4003 32.136 86.4003 31.752V16.2C86.4003 15.992 86.4243 15.816 86.4723 15.672C86.5363 15.528 86.6243 15.408 86.7363 15.312L89.8323 12.696C89.9123 12.632 90.0163 12.584 90.1443 12.552C90.2883 12.504 90.4403 12.48 90.6003 12.48H101.736C102.12 12.48 102.4 12.568 102.576 12.744C102.752 12.92 102.84 13.2 102.84 13.584V16.392C102.84 16.6 102.808 16.776 102.744 16.92C102.696 17.064 102.616 17.184 102.504 17.28L100.44 18.984C100.6 19.064 100.712 19.184 100.776 19.344C100.856 19.504 100.896 19.712 100.896 19.968V22.536C100.896 22.744 100.864 22.92 100.8 23.064C100.752 23.208 100.672 23.328 100.56 23.424L98.4243 25.224H101.736C102.12 25.224 102.4 25.312 102.576 25.488C102.752 25.664 102.84 25.944 102.84 26.328V29.136C102.84 29.344 102.808 29.52 102.744 29.664C102.696 29.808 102.616 29.928 102.504 30.024L99.3843 32.616C99.3203 32.68 99.2163 32.736 99.0723 32.784C98.9443 32.832 98.8003 32.856 98.6403 32.856ZM101.736 30C102.04 30 102.256 29.936 102.384 29.808C102.528 29.664 102.6 29.44 102.6 29.136V26.328C102.6 26.024 102.528 25.808 102.384 25.68C102.256 25.536 102.04 25.464 101.736 25.464H95.1123V23.4H99.7923C100.096 23.4 100.312 23.336 100.44 23.208C100.584 23.064 100.656 22.84 100.656 22.536V19.968C100.656 19.664 100.584 19.448 100.44 19.32C100.312 19.176 100.096 19.104 99.7923 19.104H95.1123V17.256H101.736C102.04 17.256 102.256 17.192 102.384 17.064C102.528 16.92 102.6 16.696 102.6 16.392V13.584C102.6 13.28 102.528 13.064 102.384 12.936C102.256 12.792 102.04 12.72 101.736 12.72H90.6003C90.2963 12.72 90.0723 12.792 89.9283 12.936C89.8003 13.064 89.7363 13.28 89.7363 13.584V29.136C89.7363 29.44 89.8003 29.664 89.9283 29.808C90.0723 29.936 90.2963 30 90.6003 30H101.736ZM100.44 27.6V27.84H92.3523V14.88H100.44V15.12H92.5923V21.144H98.4963V21.384H92.5923V27.6H100.44ZM115.894 15.12H110.662V22.056H115.894C116.886 22.056 117.55 21.816 117.886 21.336C118.222 20.856 118.39 20.176 118.39 19.296V17.616C118.39 16.88 118.182 16.28 117.766 15.816C117.366 15.352 116.742 15.12 115.894 15.12ZM113.254 17.04H115.054C115.47 17.04 115.75 17.152 115.894 17.376C116.038 17.584 116.11 17.848 116.11 18.168V18.984C116.11 19.304 116.038 19.576 115.894 19.8C115.75 20.008 115.47 20.112 115.054 20.112H113.254V17.04ZM110.662 27.84H110.422V14.88H115.894C116.822 14.88 117.51 15.144 117.958 15.672C118.406 16.184 118.63 16.832 118.63 17.616V19.272C118.63 20.008 118.534 20.616 118.342 21.096C118.15 21.56 117.766 21.88 117.19 22.056H117.454C118.43 22.056 119.158 22.28 119.638 22.728C120.118 23.16 120.358 23.792 120.358 24.624V27.84H120.118V24.624C120.118 23.84 119.902 23.256 119.47 22.872C119.038 22.472 118.366 22.272 117.454 22.272H110.662V27.84ZM112.39 30C112.694 30 112.91 29.936 113.038 29.808C113.182 29.664 113.254 29.44 113.254 29.136V24.432H116.614C116.95 24.432 117.182 24.52 117.31 24.696C117.454 24.856 117.526 25.112 117.526 25.464V29.136C117.526 29.44 117.59 29.664 117.718 29.808C117.862 29.936 118.086 30 118.39 30H122.11C122.414 30 122.63 29.936 122.758 29.808C122.902 29.664 122.974 29.44 122.974 29.136V24.048C122.974 23.04 122.702 22.232 122.158 21.624C121.63 21.016 120.934 20.664 120.07 20.568C120.566 20.36 120.91 20.024 121.102 19.56C121.31 19.08 121.414 18.504 121.414 17.832V16.728C121.414 15.544 121.07 14.584 120.382 13.848C119.71 13.096 118.478 12.72 116.686 12.72H108.694C108.39 12.72 108.166 12.792 108.022 12.936C107.894 13.064 107.83 13.28 107.83 13.584V29.136C107.83 29.44 107.894 29.664 108.022 29.808C108.166 29.936 108.39 30 108.694 30H112.39ZM113.158 30.024L110.038 32.616C109.974 32.68 109.87 32.736 109.726 32.784C109.598 32.832 109.454 32.856 109.294 32.856H105.598C105.214 32.856 104.934 32.768 104.758 32.592C104.582 32.416 104.494 32.136 104.494 31.752V16.2C104.494 15.992 104.518 15.816 104.566 15.672C104.63 15.528 104.718 15.408 104.83 15.312L107.926 12.696C108.006 12.632 108.11 12.584 108.238 12.552C108.382 12.504 108.534 12.48 108.694 12.48H116.686C118.59 12.48 119.894 12.88 120.598 13.68C121.302 14.464 121.654 15.48 121.654 16.728V17.832C121.654 18.424 121.582 18.944 121.438 19.392C121.294 19.824 121.062 20.176 120.742 20.448H120.718C121.47 20.656 122.07 21.072 122.518 21.696C122.982 22.32 123.214 23.104 123.214 24.048V29.136C123.214 29.344 123.182 29.52 123.118 29.664C123.07 29.808 122.99 29.928 122.878 30.024L119.758 32.616C119.694 32.68 119.59 32.736 119.446 32.784C119.318 32.832 119.174 32.856 119.014 32.856H115.294C114.91 32.856 114.63 32.768 114.454 32.592C114.278 32.416 114.19 32.136 114.19 31.752V28.08C114.19 27.824 114.142 27.632 114.046 27.504C113.95 27.36 113.774 27.288 113.518 27.288H113.494V29.136C113.494 29.344 113.462 29.52 113.398 29.664C113.35 29.808 113.27 29.928 113.158 30.024ZM125.393 32.856C125.009 32.856 124.729 32.768 124.553 32.592C124.377 32.416 124.289 32.136 124.289 31.752V28.944C124.289 28.736 124.313 28.56 124.361 28.416C124.425 28.272 124.513 28.152 124.625 28.056L127.025 26.04C126.177 25.784 125.505 25.352 125.009 24.744C124.529 24.12 124.289 23.232 124.289 22.08V19.56C124.289 18.84 124.409 18.2 124.649 17.64C124.889 17.08 125.233 16.608 125.681 16.224L128.801 13.608C129.233 13.256 129.769 12.984 130.409 12.792C131.049 12.584 131.777 12.48 132.593 12.48H139.313C139.697 12.48 139.977 12.568 140.153 12.744C140.329 12.92 140.417 13.2 140.417 13.584V16.44C140.417 16.648 140.385 16.824 140.321 16.968C140.273 17.112 140.193 17.232 140.081 17.328L137.921 19.128C138.929 19.352 139.737 19.776 140.345 20.4C140.969 21.008 141.281 21.96 141.281 23.256V25.776C141.281 26.496 141.161 27.136 140.921 27.696C140.681 28.256 140.329 28.728 139.865 29.112L136.769 31.704C136.321 32.072 135.777 32.352 135.137 32.544C134.497 32.752 133.777 32.856 132.977 32.856H125.393ZM136.073 30C137.609 30 138.817 29.64 139.697 28.92C140.593 28.184 141.041 27.136 141.041 25.776V23.256C141.041 21.912 140.697 20.952 140.009 20.376C139.321 19.8 138.417 19.432 137.297 19.272L133.721 18.792C133.513 18.776 133.353 18.696 133.241 18.552C133.129 18.408 133.073 18.232 133.073 18.024C133.073 17.816 133.129 17.648 133.241 17.52C133.353 17.376 133.513 17.304 133.721 17.304H139.313C139.617 17.304 139.833 17.24 139.961 17.112C140.105 16.968 140.177 16.744 140.177 16.44V13.584C140.177 13.28 140.105 13.064 139.961 12.936C139.833 12.792 139.617 12.72 139.313 12.72H132.593C131.041 12.72 129.825 13.088 128.945 13.824C128.065 14.544 127.625 15.584 127.625 16.944V19.464C127.625 20.808 127.961 21.768 128.633 22.344C129.321 22.92 130.225 23.288 131.345 23.448L134.945 23.952C135.153 23.968 135.305 24.04 135.401 24.168C135.513 24.296 135.569 24.496 135.569 24.768C135.569 24.96 135.513 25.128 135.401 25.272C135.305 25.4 135.153 25.464 134.945 25.464H128.489C128.185 25.464 127.961 25.536 127.817 25.68C127.689 25.808 127.625 26.024 127.625 26.328V29.136C127.625 29.44 127.689 29.664 127.817 29.808C127.961 29.936 128.185 30 128.489 30H136.073ZM138.017 14.88V15.12H132.689C132.017 15.12 131.481 15.304 131.081 15.672C130.681 16.04 130.481 16.504 130.481 17.064V19.032C130.481 19.592 130.593 19.984 130.817 20.208C131.041 20.432 131.337 20.576 131.705 20.64L136.769 21.672C137.249 21.768 137.641 21.976 137.945 22.296C138.265 22.616 138.425 23.192 138.425 24.024V25.416C138.425 26.12 138.185 26.704 137.705 27.168C137.225 27.616 136.577 27.84 135.761 27.84H129.785V27.6H135.761C136.497 27.6 137.081 27.4 137.513 27C137.961 26.584 138.185 26.056 138.185 25.416V24.024C138.185 23.272 138.049 22.76 137.777 22.488C137.521 22.2 137.169 22.008 136.721 21.912L131.657 20.88C131.241 20.8 130.897 20.64 130.625 20.4C130.369 20.144 130.241 19.688 130.241 19.032V17.064C130.241 16.424 130.465 15.904 130.913 15.504C131.361 15.088 131.953 14.88 132.689 14.88H138.017Z" fill="black"/>
<path d="M6.514 34.046C5.99267 34.046 5.57333 33.944 5.256 33.74C4.93867 33.5587 4.678 33.2187 4.474 32.72L1.142 24.39C0.938 23.8687 0.756667 23.4267 0.598 23.064C0.462 22.6787 0.348667 22.316 0.258 21.976C0.167333 21.6133 0.0993333 21.2393 0.054 20.854C0.0313334 20.446 0.02 19.97 0.02 19.426V10.45C0.02 10.1553 0.054 9.906 0.122 9.702C0.212667 9.498 0.337333 9.328 0.496 9.192L4.882 5.486C4.99533 5.39533 5.14267 5.32733 5.324 5.282C5.528 5.214 5.74333 5.18 5.97 5.18H11.376C11.92 5.18 12.328 5.316 12.6 5.588C12.8947 5.83733 13.042 6.22267 13.042 6.744V16.128C13.042 16.3547 13.0647 16.57 13.11 16.774C13.1553 16.978 13.212 17.1933 13.28 17.42L13.382 17.658V10.45C13.382 10.1553 13.416 9.906 13.484 9.702C13.5747 9.498 13.6993 9.328 13.858 9.192L18.244 5.486C18.3573 5.39533 18.5047 5.32733 18.686 5.282C18.89 5.214 19.1053 5.18 19.332 5.18H24.67C25.2367 5.18 25.6333 5.30467 25.86 5.554C26.1093 5.80333 26.234 6.2 26.234 6.744V15.72C26.234 16.264 26.2113 16.74 26.166 17.148C26.1433 17.5333 26.0867 17.9073 25.996 18.27C25.9053 18.61 25.7807 18.9727 25.622 19.358C25.486 19.7207 25.316 20.1627 25.112 20.684L21.78 29.014C21.712 29.218 21.6213 29.3993 21.508 29.558C21.3947 29.7167 21.2813 29.8413 21.168 29.932L16.782 33.57C16.6007 33.7287 16.3853 33.842 16.136 33.91C15.9093 34.0007 15.6487 34.046 15.354 34.046H6.514ZM19.74 30C20.1707 30 20.522 29.9207 20.794 29.762C21.0887 29.6033 21.3153 29.3087 21.474 28.878L24.806 20.548C25.01 20.0493 25.18 19.6187 25.316 19.256C25.452 18.8707 25.5653 18.508 25.656 18.168C25.7467 17.828 25.8033 17.4767 25.826 17.114C25.8713 16.7287 25.894 16.264 25.894 15.72V6.744C25.894 6.31333 25.792 6.00733 25.588 5.826C25.4067 5.622 25.1007 5.52 24.67 5.52H19.332C18.9013 5.52 18.584 5.622 18.38 5.826C18.1987 6.00733 18.108 6.31333 18.108 6.744V16.094C18.108 16.3207 18.0853 16.5473 18.04 16.774C17.9947 17.0007 17.9267 17.2387 17.836 17.488L16.238 22.282C16.17 22.5087 16.0907 22.6673 16 22.758C15.9093 22.826 15.7733 22.86 15.592 22.86H15.218C15.0367 22.86 14.9007 22.826 14.81 22.758C14.7193 22.6673 14.64 22.5087 14.572 22.282L12.974 17.522C12.8833 17.2727 12.8153 17.0347 12.77 16.808C12.7247 16.5813 12.702 16.3547 12.702 16.128V6.744C12.702 6.31333 12.5887 6.00733 12.362 5.826C12.1353 5.622 11.8067 5.52 11.376 5.52H5.97C5.53933 5.52 5.222 5.622 5.018 5.826C4.83667 6.00733 4.746 6.31333 4.746 6.744V15.72C4.746 16.264 4.75733 16.7287 4.78 17.114C4.82533 17.4767 4.89333 17.828 4.984 18.168C5.07467 18.508 5.188 18.8707 5.324 19.256C5.46 19.6187 5.63 20.0493 5.834 20.548L9.166 28.878C9.32467 29.3087 9.54 29.6033 9.812 29.762C10.1067 29.9207 10.4693 30 10.9 30H19.74ZM8.588 8.58H8.928V15.924C8.928 16.5133 8.97333 17.08 9.064 17.624C9.15467 18.1453 9.29067 18.6327 9.472 19.086L11.716 24.526C11.9427 25.1153 12.192 25.614 12.464 26.022C12.7587 26.4073 13.2233 26.6 13.858 26.6H16.85C17.4847 26.6 17.938 26.4073 18.21 26.022C18.5047 25.614 18.7653 25.1153 18.992 24.526L21.236 19.086C21.4173 18.6327 21.5533 18.1453 21.644 17.624C21.7347 17.08 21.78 16.5133 21.78 15.924V8.58H22.12V15.924C22.12 16.5587 22.0747 17.148 21.984 17.692C21.916 18.2133 21.78 18.7233 21.576 19.222L19.332 24.662C19.06 25.3193 18.754 25.8633 18.414 26.294C18.074 26.7247 17.5527 26.94 16.85 26.94H13.858C13.1553 26.94 12.634 26.7247 12.294 26.294C11.954 25.8633 11.648 25.3193 11.376 24.662L9.132 19.222C8.928 18.7233 8.78067 18.2133 8.69 17.692C8.622 17.148 8.588 16.5587 8.588 15.924V8.58Z" fill="#1125FD"/>
</g>
<defs>
<clipPath id="clip0_166_35">
<rect width="142" height="41" fill="white"/>
</clipPath>
</defs>
</svg>
